<svg xmlns="http://www.w3.org/2000/svg" viewBox="0 0 53.02 53.02"><defs><style>.cls-1{fill:none;stroke:#848484;stroke-miterlimit:10;}</style></defs><title>big newsblogsvg</title><g id="Layer_2" data-name="Layer 2"><g id="Layer_1-2" data-name="Layer 1"><path class="cls-1" d="M45.09,8.12v-2A5.58,5.58,0,0,0,39.51.5h-26A5.58,5.58,0,0,0,7.93,6.07v2A9.3,9.3,0,0,0,.5,17.22v26a9.3,9.3,0,0,0,9.29,9.29H43.23a9.3,9.3,0,0,0,9.29-9.29v-26A9.3,9.3,0,0,0,45.09,8.12Zm3.71,9.1V18l-3.71,2.29V12A5.57,5.57,0,0,1,48.8,17.22ZM11.65,6.07A1.85,1.85,0,0,1,13.5,4.22h26a1.85,1.85,0,0,1,1.86,1.85V22.61L26.51,31.76,11.65,22.61ZM7.93,12v8.34L4.22,18v-.82A5.55,5.55,0,0,1,7.93,12Z"/><path class="cls-1" d="M17.22,11.65h13a1.86,1.86,0,0,0,0-3.72h-13a1.86,1.86,0,1,0,0,3.72Z"/><path class="cls-1" d="M17.22,19.08h5.57a1.86,1.86,0,0,0,0-3.72H17.22a1.86,1.86,0,0,0,0,3.72Z"/></g></g></svg>