<svg xmlns="http://www.w3.org/2000/svg" viewBox="0 0 19.76 19.76"><defs><style>.cls-1{fill:#ee2f2e;}.cls-2{fill:none;stroke:#ee2f2e;stroke-miterlimit:10;}</style></defs><title>deleteblogsvg</title><g id="Layer_2" data-name="Layer 2"><g id="Layer_1-2" data-name="Layer 1"><path class="cls-1" d="M13.31,6.44H12V6A2.15,2.15,0,1,0,7.73,6v.42H6.44A1.28,1.28,0,0,0,5.16,7.73V9a.43.43,0,0,0,.43.43H6V14.6A1.28,1.28,0,0,0,7.3,15.89h5.15a1.29,1.29,0,0,0,1.29-1.29V9.45h.43A.43.43,0,0,0,14.6,9V7.73A1.29,1.29,0,0,0,13.31,6.44ZM8.59,6a1.29,1.29,0,0,1,2.58,0v.42H8.59ZM9,13.31a.43.43,0,0,1-.86,0V11.17a.43.43,0,1,1,.86,0Zm2.57,0a.43.43,0,1,1-.85,0V11.17a.43.43,0,1,1,.85,0Z"/><circle class="cls-2" cx="9.88" cy="9.88" r="9.38"/></g></g></svg>