<svg xmlns="http://www.w3.org/2000/svg" viewBox="0 0 18.76 18.76"><defs><style>.cls-1{fill:#0c8542;}.cls-2{fill:#fff;}</style></defs><title>editblogsvg</title><g id="Layer_2" data-name="Layer 2"><g id="Layer_1-2" data-name="Layer 1"><circle class="cls-1" cx="9.38" cy="9.38" r="9.38"/><path class="cls-2" d="M14.63,6.25,12.2,3.82a1.33,1.33,0,0,0-1.82,0l-3,3h0L4.13,10.07a1.29,1.29,0,0,0,0,1.82l1.62,1.62a.4.4,0,0,0,.31.13H8.88a.42.42,0,0,0,.31-.13l5.44-5.44h0A1.29,1.29,0,0,0,14.63,6.25ZM8.7,12.78H6.23L4.74,11.29a.43.43,0,0,1,0-.61L7.65,7.77l3,3Z"/><path class="cls-2" d="M13.88,14.44H4.44a.43.43,0,0,0-.43.43.44.44,0,0,0,.43.43h9.44a.43.43,0,0,0,.43-.43A.43.43,0,0,0,13.88,14.44Z"/></g></g></svg>