<svg xmlns="http://www.w3.org/2000/svg" viewBox="0 0 16 16"><defs><style>.cls-1{fill:#3c569f;}.cls-2{fill:#fff;}</style></defs><title>faceblogsvg</title><g id="Layer_2" data-name="Layer 2"><g id="Layer_1-2" data-name="Layer 1"><rect class="cls-1" width="16" height="16" rx="4.5"/><path class="cls-2" d="M13.41,7.72A.48.48,0,0,0,13,7.5H10.5V5.6a.09.09,0,0,1,.1-.1h1.9A.5.5,0,0,0,13,5V3.5a.5.5,0,0,0-.5-.5h-2C8.85,3,8,4.35,8,6V7.5H6a.5.5,0,0,0-.5.5V9.5A.5.5,0,0,0,6,10H8v6h2.5V10H12a.49.49,0,0,0,.46-.31l1-1.5A.47.47,0,0,0,13.41,7.72Z"/></g></g></svg>