<svg xmlns="http://www.w3.org/2000/svg" viewBox="0 0 15.86 11.9"><defs><style>.cls-1{fill:none;stroke:#848484;stroke-miterlimit:10;}</style></defs><title>small newsblogsvg</title><g id="Layer_2" data-name="Layer 2"><g id="Layer_1-2" data-name="Layer 1"><path class="cls-1" d="M14.86.5H1A.5.5,0,0,0,.5,1v9.9a.5.5,0,0,0,.5.5H14.86a.5.5,0,0,0,.5-.5V1A.5.5,0,0,0,14.86.5ZM12.22,7.56a.5.5,0,0,1,0,.7.47.47,0,0,1-.37.16.49.49,0,0,1-.32-.12L9.63,6.61,8.26,7.81a.51.51,0,0,1-.66,0L6.23,6.61,4.29,8.3A.49.49,0,0,1,4,8.42a.49.49,0,0,1-.33-.86L5.48,6,3.64,4.34a.5.5,0,0,1-.05-.7.49.49,0,0,1,.7-.05L7.93,6.78l3.64-3.19a.48.48,0,0,1,.69.05.5.5,0,0,1,0,.7L10.38,6Z"/></g></g></svg>