<svg xmlns="http://www.w3.org/2000/svg" viewBox="0 0 19.54 15.05"><defs><style>.cls-1{fill:none;stroke:#f9f9fa;stroke-miterlimit:10;}</style></defs><title>submitblogsvg</title><g id="Layer_2" data-name="Layer 2"><g id="Layer_1-2" data-name="Layer 1"><path class="cls-1" d="M6,11.09a.63.63,0,1,1,.91-.86l2.84,3,.88.92a1.26,1.26,0,0,0,.4.28,1.28,1.28,0,0,0,.67.09,1.23,1.23,0,0,0,.94-.65L18.89,2.35a1.25,1.25,0,0,0-.05-1.28A1.28,1.28,0,0,0,17.68.5l-16,1.33A1.25,1.25,0,0,0,.85,4l4,4.15L3.31,11.58A1.26,1.26,0,0,0,3.59,13,1.25,1.25,0,0,0,5,13.22l2.07-1Z"/></g></g></svg>