<svg xmlns="http://www.w3.org/2000/svg" viewBox="0 0 15.97 13.8"><defs><style>.cls-1{fill:#2aaae2;}</style></defs><title>twitterblogsvg</title><g id="Layer_2" data-name="Layer 2"><g id="Layer_1-2" data-name="Layer 1"><path class="cls-1" d="M5.21,13.8a9,9,0,0,1-5-1.49.5.5,0,0,1-.2-.59.51.51,0,0,1,.53-.33,5.46,5.46,0,0,0,3.21-.57A3.58,3.58,0,0,1,1.7,8.55a.5.5,0,0,1,.11-.48.08.08,0,0,1,0,0A3.7,3.7,0,0,1,.6,5.26a.52.52,0,0,1,.25-.45.54.54,0,0,1,.21-.08A3.67,3.67,0,0,1,.63,3a3.65,3.65,0,0,1,.48-1.83A.47.47,0,0,1,1.5.91a.47.47,0,0,1,.43.18A8.2,8.2,0,0,0,6.47,4a4,4,0,0,1,6.89-2.75A6.07,6.07,0,0,0,14.71.57a.51.51,0,0,1,.6.06.5.5,0,0,1,.11.59l-.75,1.49,1,.32a.51.51,0,0,1,.34.42.5.5,0,0,1-.25.48l-1.28.77A9.27,9.27,0,0,1,5.21,13.8Z"/></g></g></svg>