<svg xmlns="http://www.w3.org/2000/svg" xmlns:xlink="http://www.w3.org/1999/xlink" viewBox="0 0 96.9 96.91"><defs><style>.cls-1{fill:url(#linear-gradient);}</style><linearGradient id="linear-gradient" y1="48.46" x2="96.9" y2="48.46" gradientUnits="userSpaceOnUse"><stop offset="0" stop-color="#504474"/><stop offset="1" stop-color="#942758"/></linearGradient></defs><title>accentblogsvg</title><g id="Layer_2" data-name="Layer 2"><g id="Layer_1-2" data-name="Layer 1"><path class="cls-1" d="M48.45,96.91a20.84,20.84,0,0,1-14.83-6.14L6.13,63.28a21,21,0,0,1,0-29.66L33.62,6.13a21,21,0,0,1,29.66,0L90.77,33.62a21,21,0,0,1,0,29.66L63.28,90.77A20.84,20.84,0,0,1,48.45,96.91Zm0-85.92a10,10,0,0,0-7.05,2.92L13.91,41.4a10,10,0,0,0,0,14.1L41.4,83a10,10,0,0,0,14.1,0L83,55.5a10,10,0,0,0,0-14.1L55.5,13.91A10,10,0,0,0,48.45,11Z"/></g></g></svg>